<svg width="345" height="413" viewBox="0 0 345 413" fill="none" xmlns="http://www.w3.org/2000/svg">
<rect width="345" height="345" fill="url(#paint0_linear_1_16)"/>
<path d="M172.002 239.229L161.731 229.879C125.252 196.8 101.168 174.912 101.168 148.208C101.168 126.321 118.31 109.25 140.127 109.25C152.452 109.25 164.281 114.987 172.002 123.983C179.723 114.987 191.552 109.25 203.877 109.25C225.693 109.25 242.835 126.321 242.835 148.208C242.835 174.912 218.752 196.8 182.273 229.879L172.002 239.229Z" fill="white"/>
<path d="M12.642 365.455V380H10.8807V367.017H3.55114V380H1.78977V365.455H12.642ZM15.9677 380V369.091H17.6438V380H15.9677ZM16.82 367.273C16.4933 367.273 16.2115 367.161 15.9748 366.939C15.7428 366.716 15.6268 366.449 15.6268 366.136C15.6268 365.824 15.7428 365.556 15.9748 365.334C16.2115 365.111 16.4933 365 16.82 365C17.1467 365 17.426 365.111 17.658 365.334C17.8948 365.556 18.0131 365.824 18.0131 366.136C18.0131 366.449 17.8948 366.716 17.658 366.939C17.426 367.161 17.1467 367.273 16.82 367.273ZM25.1456 380.227C24.1229 380.227 23.2422 379.986 22.5036 379.503C21.7649 379.02 21.1967 378.355 20.799 377.507C20.4013 376.66 20.2024 375.691 20.2024 374.602C20.2024 373.494 20.406 372.517 20.8132 371.669C21.2251 370.817 21.7981 370.152 22.532 369.673C23.2706 369.19 24.1323 368.949 25.1172 368.949C25.8842 368.949 26.5755 369.091 27.1911 369.375C27.8066 369.659 28.3108 370.057 28.7038 370.568C29.0968 371.08 29.3407 371.676 29.4354 372.358H27.7592C27.6314 371.861 27.3473 371.42 26.907 371.037C26.4714 370.649 25.8842 370.455 25.1456 370.455C24.4922 370.455 23.9193 370.625 23.4268 370.966C22.9392 371.302 22.558 371.778 22.2834 372.393C22.0135 373.004 21.8786 373.722 21.8786 374.545C21.8786 375.388 22.0111 376.122 22.2763 376.747C22.5462 377.372 22.925 377.857 23.4126 378.203C23.9051 378.549 24.4827 378.722 25.1456 378.722C25.5812 378.722 25.9766 378.646 26.3317 378.494C26.6868 378.343 26.9875 378.125 27.2337 377.841C27.4799 377.557 27.6551 377.216 27.7592 376.818H29.4354C29.3407 377.462 29.1063 378.042 28.7322 378.558C28.3629 379.07 27.8729 379.477 27.2621 379.78C26.656 380.078 25.9505 380.227 25.1456 380.227ZM39.1868 373.778V375.341H33.1641V373.778H39.1868ZM33.5618 369.091V380H31.8857V369.091H33.5618ZM40.4652 369.091V380H38.7891V369.091H40.4652ZM43.5263 380V369.091H45.2024V380H43.5263ZM44.3786 367.273C44.0518 367.273 43.7701 367.161 43.5334 366.939C43.3014 366.716 43.1854 366.449 43.1854 366.136C43.1854 365.824 43.3014 365.556 43.5334 365.334C43.7701 365.111 44.0518 365 44.3786 365C44.7053 365 44.9846 365.111 45.2166 365.334C45.4534 365.556 45.5717 365.824 45.5717 366.136C45.5717 366.449 45.4534 366.716 45.2166 366.939C44.9846 367.161 44.7053 367.273 44.3786 367.273ZM50.7724 378.011L50.6587 378.778C50.5782 379.318 50.4551 379.896 50.2894 380.511C50.1284 381.127 49.9603 381.707 49.7852 382.251C49.61 382.796 49.4656 383.229 49.3519 383.551H48.0735C48.1351 383.248 48.2156 382.848 48.315 382.351C48.4144 381.854 48.5138 381.297 48.6133 380.682C48.7174 380.071 48.8027 379.446 48.869 378.807L48.9542 378.011H50.7724ZM74.3892 378.438L74.1903 383.125H72.4574V380H71.0369V378.438H74.3892ZM59.5028 369.091H61.179V378.438H65.2983V369.091H66.9744V378.438H71.0938V369.091H72.7699V380H59.5028V369.091ZM81.1417 380.227C80.1568 380.227 79.2927 379.993 78.5494 379.524C77.8107 379.055 77.2331 378.4 76.8164 377.557C76.4045 376.714 76.1985 375.729 76.1985 374.602C76.1985 373.466 76.4045 372.474 76.8164 371.626C77.2331 370.779 77.8107 370.121 78.5494 369.652C79.2927 369.183 80.1568 368.949 81.1417 368.949C82.1265 368.949 82.9883 369.183 83.7269 369.652C84.4703 370.121 85.0479 370.779 85.4599 371.626C85.8765 372.474 86.0849 373.466 86.0849 374.602C86.0849 375.729 85.8765 376.714 85.4599 377.557C85.0479 378.4 84.4703 379.055 83.7269 379.524C82.9883 379.993 82.1265 380.227 81.1417 380.227ZM81.1417 378.722C81.8898 378.722 82.5053 378.53 82.9883 378.146C83.4712 377.763 83.8287 377.259 84.0607 376.634C84.2927 376.009 84.4087 375.331 84.4087 374.602C84.4087 373.873 84.2927 373.194 84.0607 372.564C83.8287 371.934 83.4712 371.425 82.9883 371.037C82.5053 370.649 81.8898 370.455 81.1417 370.455C80.3936 370.455 79.7781 370.649 79.2951 371.037C78.8121 371.425 78.4547 371.934 78.2227 372.564C77.9906 373.194 77.8746 373.873 77.8746 374.602C77.8746 375.331 77.9906 376.009 78.2227 376.634C78.4547 377.259 78.8121 377.763 79.2951 378.146C79.7781 378.53 80.3936 378.722 81.1417 378.722ZM98.7003 380.227C97.6776 380.227 96.7969 379.986 96.0582 379.503C95.3196 379.02 94.7514 378.355 94.3537 377.507C93.956 376.66 93.7571 375.691 93.7571 374.602C93.7571 373.494 93.9607 372.517 94.3679 371.669C94.7798 370.817 95.3527 370.152 96.0866 369.673C96.8253 369.19 97.687 368.949 98.6719 368.949C99.4389 368.949 100.13 369.091 100.746 369.375C101.361 369.659 101.866 370.057 102.259 370.568C102.652 371.08 102.895 371.676 102.99 372.358H101.314C101.186 371.861 100.902 371.42 100.462 371.037C100.026 370.649 99.4389 370.455 98.7003 370.455C98.0469 370.455 97.474 370.625 96.9815 370.966C96.4938 371.302 96.1127 371.778 95.8381 372.393C95.5682 373.004 95.4332 373.722 95.4332 374.545C95.4332 375.388 95.5658 376.122 95.831 376.747C96.1009 377.372 96.4796 377.857 96.9673 378.203C97.4598 378.549 98.0374 378.722 98.7003 378.722C99.1359 378.722 99.5312 378.646 99.8864 378.494C100.241 378.343 100.542 378.125 100.788 377.841C101.035 377.557 101.21 377.216 101.314 376.818H102.99C102.895 377.462 102.661 378.042 102.287 378.558C101.918 379.07 101.428 379.477 100.817 379.78C100.211 380.078 99.5052 380.227 98.7003 380.227ZM105.44 380V369.091H114.02V380H112.344V370.653H107.116V380H105.44ZM121.513 380.227C120.528 380.227 119.664 379.993 118.92 379.524C118.182 379.055 117.604 378.4 117.188 377.557C116.776 376.714 116.57 375.729 116.57 374.602C116.57 373.466 116.776 372.474 117.188 371.626C117.604 370.779 118.182 370.121 118.92 369.652C119.664 369.183 120.528 368.949 121.513 368.949C122.498 368.949 123.359 369.183 124.098 369.652C124.841 370.121 125.419 370.779 125.831 371.626C126.248 372.474 126.456 373.466 126.456 374.602C126.456 375.729 126.248 376.714 125.831 377.557C125.419 378.4 124.841 379.055 124.098 379.524C123.359 379.993 122.498 380.227 121.513 380.227ZM121.513 378.722C122.261 378.722 122.876 378.53 123.359 378.146C123.842 377.763 124.2 377.259 124.432 376.634C124.664 376.009 124.78 375.331 124.78 374.602C124.78 373.873 124.664 373.194 124.432 372.564C124.2 371.934 123.842 371.425 123.359 371.037C122.876 370.649 122.261 370.455 121.513 370.455C120.765 370.455 120.149 370.649 119.666 371.037C119.183 371.425 118.826 371.934 118.594 372.564C118.362 373.194 118.246 373.873 118.246 374.602C118.246 375.331 118.362 376.009 118.594 376.634C118.826 377.259 119.183 377.763 119.666 378.146C120.149 378.53 120.765 378.722 121.513 378.722ZM127.85 383.125V378.438H128.759C128.981 378.205 129.173 377.955 129.334 377.685C129.495 377.415 129.635 377.095 129.753 376.726C129.876 376.352 129.98 375.897 130.066 375.362C130.151 374.822 130.227 374.171 130.293 373.409L130.662 369.091H137.594V378.438H139.27V383.125H137.594V380H129.526V383.125H127.85ZM130.662 378.438H135.918V370.653H132.225L131.941 373.409C131.822 374.55 131.676 375.547 131.5 376.399C131.325 377.251 131.046 377.931 130.662 378.438ZM145.927 380.227C144.942 380.227 144.078 379.993 143.335 379.524C142.596 379.055 142.018 378.4 141.602 377.557C141.19 376.714 140.984 375.729 140.984 374.602C140.984 373.466 141.19 372.474 141.602 371.626C142.018 370.779 142.596 370.121 143.335 369.652C144.078 369.183 144.942 368.949 145.927 368.949C146.912 368.949 147.773 369.183 148.512 369.652C149.255 370.121 149.833 370.779 150.245 371.626C150.662 372.474 150.87 373.466 150.87 374.602C150.87 375.729 150.662 376.714 150.245 377.557C149.833 378.4 149.255 379.055 148.512 379.524C147.773 379.993 146.912 380.227 145.927 380.227ZM145.927 378.722C146.675 378.722 147.29 378.53 147.773 378.146C148.256 377.763 148.614 377.259 148.846 376.634C149.078 376.009 149.194 375.331 149.194 374.602C149.194 373.873 149.078 373.194 148.846 372.564C148.614 371.934 148.256 371.425 147.773 371.037C147.29 370.649 146.675 370.455 145.927 370.455C145.179 370.455 144.563 370.649 144.08 371.037C143.597 371.425 143.24 371.934 143.008 372.564C142.776 373.194 142.66 373.873 142.66 374.602C142.66 375.331 142.776 376.009 143.008 376.634C143.24 377.259 143.597 377.763 144.08 378.146C144.563 378.53 145.179 378.722 145.927 378.722ZM161.525 365L162.377 366.023C162.046 366.345 161.663 366.57 161.227 366.697C160.791 366.825 160.299 366.903 159.75 366.932C159.2 366.96 158.59 366.989 157.917 367.017C157.16 367.045 156.532 367.23 156.035 367.571C155.538 367.912 155.154 368.404 154.885 369.048C154.615 369.692 154.442 370.483 154.366 371.42H154.508C154.877 370.739 155.389 370.237 156.042 369.915C156.696 369.593 157.396 369.432 158.145 369.432C158.997 369.432 159.764 369.631 160.446 370.028C161.127 370.426 161.667 371.016 162.065 371.797C162.463 372.578 162.662 373.542 162.662 374.688C162.662 375.829 162.458 376.813 162.051 377.642C161.648 378.471 161.083 379.11 160.353 379.56C159.629 380.005 158.779 380.227 157.804 380.227C156.828 380.227 155.974 379.998 155.24 379.538C154.506 379.074 153.935 378.388 153.528 377.479C153.121 376.565 152.917 375.436 152.917 374.091V372.926C152.917 370.497 153.329 368.655 154.153 367.401C154.982 366.146 156.227 365.497 157.889 365.455C158.476 365.436 158.999 365.431 159.458 365.44C159.918 365.45 160.318 365.429 160.659 365.376C161 365.324 161.288 365.199 161.525 365ZM157.804 378.722C158.462 378.722 159.028 378.556 159.501 378.224C159.979 377.893 160.346 377.427 160.602 376.825C160.858 376.219 160.985 375.507 160.985 374.688C160.985 373.892 160.855 373.215 160.595 372.656C160.339 372.098 159.972 371.671 159.494 371.378C159.016 371.084 158.443 370.938 157.775 370.938C157.288 370.938 156.85 371.02 156.461 371.186C156.073 371.352 155.742 371.596 155.467 371.918C155.192 372.24 154.979 372.633 154.828 373.097C154.681 373.561 154.603 374.091 154.593 374.688C154.593 375.909 154.88 376.887 155.453 377.621C156.026 378.355 156.809 378.722 157.804 378.722ZM168.436 380.256C167.744 380.256 167.117 380.125 166.554 379.865C165.99 379.6 165.543 379.219 165.211 378.722C164.88 378.22 164.714 377.614 164.714 376.903C164.714 376.278 164.837 375.772 165.083 375.384C165.33 374.991 165.659 374.683 166.071 374.46C166.483 374.238 166.937 374.072 167.434 373.963C167.936 373.849 168.44 373.759 168.947 373.693C169.61 373.608 170.147 373.544 170.559 373.501C170.976 373.454 171.279 373.376 171.468 373.267C171.663 373.158 171.76 372.969 171.76 372.699V372.642C171.76 371.941 171.568 371.397 171.184 371.009C170.806 370.62 170.23 370.426 169.458 370.426C168.658 370.426 168.031 370.601 167.576 370.952C167.122 371.302 166.802 371.676 166.618 372.074L165.027 371.506C165.311 370.843 165.69 370.327 166.163 369.957C166.641 369.583 167.162 369.323 167.725 369.176C168.294 369.025 168.852 368.949 169.402 368.949C169.752 368.949 170.154 368.991 170.609 369.077C171.068 369.157 171.511 369.325 171.937 369.581C172.368 369.837 172.725 370.223 173.01 370.739C173.294 371.255 173.436 371.946 173.436 372.812V380H171.76V378.523H171.674C171.561 378.759 171.371 379.013 171.106 379.283C170.841 379.553 170.488 379.782 170.048 379.972C169.608 380.161 169.07 380.256 168.436 380.256ZM168.691 378.75C169.354 378.75 169.913 378.62 170.368 378.359C170.827 378.099 171.172 377.763 171.404 377.351C171.641 376.939 171.76 376.506 171.76 376.051V374.517C171.689 374.602 171.532 374.68 171.291 374.751C171.054 374.818 170.779 374.877 170.467 374.929C170.159 374.976 169.859 375.019 169.565 375.057C169.276 375.09 169.042 375.118 168.862 375.142C168.426 375.199 168.019 375.291 167.64 375.419C167.266 375.542 166.963 375.729 166.731 375.98C166.504 376.226 166.39 376.562 166.39 376.989C166.39 377.571 166.606 378.011 167.037 378.31C167.472 378.603 168.024 378.75 168.691 378.75ZM175.529 380V378.438H175.927C176.254 378.438 176.526 378.374 176.744 378.246C176.961 378.113 177.137 377.884 177.269 377.557C177.406 377.225 177.511 376.766 177.582 376.179C177.657 375.587 177.712 374.834 177.745 373.92L177.944 369.091H185.217V380H183.54V370.653H179.535L179.364 374.545C179.326 375.44 179.246 376.229 179.123 376.911C179.004 377.588 178.822 378.156 178.576 378.615C178.335 379.074 178.013 379.42 177.61 379.652C177.208 379.884 176.703 380 176.097 380H175.529ZM189.968 377.528L195.224 369.091H197.156V380H195.479V371.562L190.252 380H188.292V369.091H189.968V377.528ZM204.657 380.227C203.635 380.227 202.754 379.986 202.015 379.503C201.277 379.02 200.708 378.355 200.311 377.507C199.913 376.66 199.714 375.691 199.714 374.602C199.714 373.494 199.918 372.517 200.325 371.669C200.737 370.817 201.31 370.152 202.044 369.673C202.782 369.19 203.644 368.949 204.629 368.949C205.396 368.949 206.087 369.091 206.703 369.375C207.318 369.659 207.823 370.057 208.216 370.568C208.609 371.08 208.852 371.676 208.947 372.358H207.271C207.143 371.861 206.859 371.42 206.419 371.037C205.983 370.649 205.396 370.455 204.657 370.455C204.004 370.455 203.431 370.625 202.939 370.966C202.451 371.302 202.07 371.778 201.795 372.393C201.525 373.004 201.39 373.722 201.39 374.545C201.39 375.388 201.523 376.122 201.788 376.747C202.058 377.372 202.437 377.857 202.924 378.203C203.417 378.549 203.994 378.722 204.657 378.722C205.093 378.722 205.488 378.646 205.843 378.494C206.199 378.343 206.499 378.125 206.745 377.841C206.992 377.557 207.167 377.216 207.271 376.818H208.947C208.852 377.462 208.618 378.042 208.244 378.558C207.875 379.07 207.385 379.477 206.774 379.78C206.168 380.078 205.462 380.227 204.657 380.227ZM212.846 373.04H215.971C217.25 373.04 218.227 373.364 218.904 374.013C219.582 374.661 219.92 375.483 219.92 376.477C219.92 377.131 219.769 377.725 219.466 378.26C219.163 378.79 218.717 379.214 218.13 379.531C217.543 379.844 216.824 380 215.971 380H211.397V369.091H213.074V378.438H215.971C216.634 378.438 217.179 378.262 217.605 377.912C218.031 377.562 218.244 377.112 218.244 376.562C218.244 375.985 218.031 375.514 217.605 375.149C217.179 374.785 216.634 374.602 215.971 374.602H212.846V373.04Z" fill="white"/>
<path d="M4.84091 412.159C4.17424 412.159 3.57386 412.027 3.03977 411.761C2.50568 411.496 2.07765 411.133 1.75568 410.67C1.43371 410.208 1.25758 409.682 1.22727 409.091H2.59091C2.64394 409.617 2.88258 410.053 3.30682 410.398C3.73485 410.739 4.24621 410.909 4.84091 410.909C5.31818 410.909 5.74242 410.797 6.11364 410.574C6.48864 410.35 6.7822 410.044 6.99432 409.653C7.21023 409.259 7.31818 408.814 7.31818 408.318C7.31818 407.811 7.20644 407.358 6.98295 406.96C6.76326 406.559 6.46023 406.242 6.07386 406.011C5.6875 405.78 5.24621 405.663 4.75 405.659C4.39394 405.655 4.02841 405.71 3.65341 405.824C3.27841 405.934 2.9697 406.076 2.72727 406.25L1.40909 406.091L2.11364 400.364H8.15909V401.614H3.29545L2.88636 405.045H2.95455C3.19318 404.856 3.49242 404.699 3.85227 404.574C4.21212 404.449 4.58712 404.386 4.97727 404.386C5.68939 404.386 6.32386 404.557 6.88068 404.898C7.44129 405.235 7.88068 405.697 8.19886 406.284C8.52083 406.871 8.68182 407.542 8.68182 408.295C8.68182 409.038 8.51515 409.701 8.18182 410.284C7.85227 410.864 7.39773 411.322 6.81818 411.659C6.23864 411.992 5.57955 412.159 4.84091 412.159ZM14.7344 412.159C13.8783 412.159 13.1491 411.926 12.5469 411.46C11.9446 410.991 11.4844 410.311 11.1662 409.42C10.848 408.527 10.6889 407.447 10.6889 406.182C10.6889 404.924 10.848 403.85 11.1662 402.96C11.4882 402.066 11.9503 401.384 12.5526 400.915C13.1586 400.441 13.8859 400.205 14.7344 400.205C15.5829 400.205 16.3082 400.441 16.9105 400.915C17.5166 401.384 17.9787 402.066 18.2969 402.96C18.6188 403.85 18.7798 404.924 18.7798 406.182C18.7798 407.447 18.6207 408.527 18.3026 409.42C17.9844 410.311 17.5241 410.991 16.9219 411.46C16.3196 411.926 15.5904 412.159 14.7344 412.159ZM14.7344 410.909C15.5829 410.909 16.242 410.5 16.7116 409.682C17.1813 408.864 17.4162 407.697 17.4162 406.182C17.4162 405.174 17.3082 404.316 17.0923 403.608C16.8802 402.9 16.5734 402.36 16.1719 401.989C15.7741 401.617 15.295 401.432 14.7344 401.432C13.8935 401.432 13.2363 401.847 12.7628 402.676C12.2893 403.502 12.0526 404.67 12.0526 406.182C12.0526 407.189 12.1586 408.045 12.3707 408.75C12.5829 409.455 12.8878 409.991 13.2855 410.358C13.687 410.725 14.17 410.909 14.7344 410.909ZM25.4616 412V403.273H32.3253V412H30.9844V404.523H26.8026V412H25.4616ZM34.7741 412V403.273H36.1151V412H34.7741ZM35.456 401.818C35.1946 401.818 34.9692 401.729 34.7798 401.551C34.5942 401.373 34.5014 401.159 34.5014 400.909C34.5014 400.659 34.5942 400.445 34.7798 400.267C34.9692 400.089 35.1946 400 35.456 400C35.7173 400 35.9408 400.089 36.1264 400.267C36.3158 400.445 36.4105 400.659 36.4105 400.909C36.4105 401.159 36.3158 401.373 36.1264 401.551C35.9408 401.729 35.7173 401.818 35.456 401.818ZM42.1165 412.182C41.2983 412.182 40.5938 411.989 40.0028 411.602C39.4119 411.216 38.9574 410.684 38.6392 410.006C38.321 409.328 38.1619 408.553 38.1619 407.682C38.1619 406.795 38.3248 406.013 38.6506 405.335C38.9801 404.653 39.4384 404.121 40.0256 403.739C40.6165 403.352 41.3059 403.159 42.0938 403.159C42.7074 403.159 43.2604 403.273 43.7528 403.5C44.2453 403.727 44.6487 404.045 44.9631 404.455C45.2775 404.864 45.4725 405.341 45.5483 405.886H44.2074C44.1051 405.489 43.8778 405.136 43.5256 404.83C43.1771 404.519 42.7074 404.364 42.1165 404.364C41.5938 404.364 41.1354 404.5 40.7415 404.773C40.3513 405.042 40.0464 405.422 39.8267 405.915C39.6108 406.403 39.5028 406.977 39.5028 407.636C39.5028 408.311 39.6089 408.898 39.821 409.398C40.0369 409.898 40.34 410.286 40.7301 410.562C41.1241 410.839 41.5862 410.977 42.1165 410.977C42.465 410.977 42.7812 410.917 43.0653 410.795C43.3494 410.674 43.59 410.5 43.7869 410.273C43.9839 410.045 44.1241 409.773 44.2074 409.455H45.5483C45.4725 409.97 45.285 410.434 44.9858 410.847C44.6903 411.256 44.2983 411.581 43.8097 411.824C43.3248 412.062 42.7604 412.182 42.1165 412.182ZM51.1676 412.182C50.3267 412.182 49.6013 411.996 48.9915 411.625C48.3854 411.25 47.9176 410.727 47.5881 410.057C47.2623 409.383 47.0994 408.598 47.0994 407.705C47.0994 406.811 47.2623 406.023 47.5881 405.341C47.9176 404.655 48.3759 404.121 48.9631 403.739C49.554 403.352 50.2434 403.159 51.0312 403.159C51.4858 403.159 51.9347 403.235 52.3778 403.386C52.821 403.538 53.2244 403.784 53.5881 404.125C53.9517 404.462 54.2415 404.909 54.4574 405.466C54.6733 406.023 54.7812 406.708 54.7812 407.523V408.091H48.054V406.932H53.4176C53.4176 406.439 53.3191 406 53.1222 405.614C52.929 405.227 52.6525 404.922 52.2926 404.699C51.9366 404.475 51.5161 404.364 51.0312 404.364C50.4972 404.364 50.035 404.496 49.6449 404.761C49.2585 405.023 48.9612 405.364 48.7528 405.784C48.5445 406.205 48.4403 406.655 48.4403 407.136V407.909C48.4403 408.568 48.554 409.127 48.7812 409.585C49.0123 410.04 49.3324 410.386 49.7415 410.625C50.1506 410.86 50.6259 410.977 51.1676 410.977C51.5199 410.977 51.8381 410.928 52.1222 410.83C52.41 410.727 52.6581 410.576 52.8665 410.375C53.0748 410.17 53.2358 409.917 53.3494 409.614L54.6449 409.977C54.5085 410.417 54.2794 410.803 53.9574 411.136C53.6354 411.466 53.2377 411.723 52.7642 411.909C52.2907 412.091 51.7585 412.182 51.1676 412.182ZM62.6619 407.023V408.273H57.8438V407.023H62.6619ZM58.1619 403.273V412H56.821V403.273H58.1619ZM63.6847 403.273V412H62.3438V403.273H63.6847ZM67.2926 406.432H69.7926C70.8153 406.432 71.5975 406.691 72.1392 407.21C72.6809 407.729 72.9517 408.386 72.9517 409.182C72.9517 409.705 72.8305 410.18 72.5881 410.608C72.3456 411.032 71.9896 411.371 71.5199 411.625C71.0502 411.875 70.4744 412 69.7926 412H66.1335V403.273H67.4744V410.75H69.7926C70.3229 410.75 70.7585 410.61 71.0994 410.33C71.4403 410.049 71.6108 409.689 71.6108 409.25C71.6108 408.788 71.4403 408.411 71.0994 408.119C70.7585 407.828 70.3229 407.682 69.7926 407.682H67.2926V406.432Z" fill="#BDBDBD"/>
<defs>
<linearGradient id="paint0_linear_1_16" x1="8.1082e-07" y1="3.5" x2="345" y2="345" gradientUnits="userSpaceOnUse">
<stop stop-color="#4531F2"/>
<stop offset="1" stop-color="#CEF4E7"/>
</linearGradient>
</defs>
</svg>
