<svg width="345" height="413" viewBox="0 0 345 413" fill="none" xmlns="http://www.w3.org/2000/svg">
<rect width="345" height="345" fill="#2D1F16"/>
<circle cx="210" cy="100" r="65" fill="#FEE504"/>
<circle opacity="0.9" cx="145" cy="165" r="65" fill="#FF9D01"/>
<rect x="33" y="329" width="120" height="16" fill="#EA9003"/>
<path d="M36.196 279.909H41.5227L50.7841 302.523H51.125L60.3864 279.909H65.7131V309H61.5369V287.949H61.267L52.6875 308.957H49.2216L40.642 287.935H40.3722V309H36.196V279.909ZM71.7536 309V287.182H76.0007V309H71.7536ZM73.8984 283.815C73.1598 283.815 72.5253 283.569 71.995 283.077C71.4742 282.575 71.2138 281.978 71.2138 281.287C71.2138 280.586 71.4742 279.99 71.995 279.497C72.5253 278.995 73.1598 278.744 73.8984 278.744C74.6371 278.744 75.2668 278.995 75.7876 279.497C76.3179 279.99 76.5831 280.586 76.5831 281.287C76.5831 281.978 76.3179 282.575 75.7876 283.077C75.2668 283.569 74.6371 283.815 73.8984 283.815ZM81.7145 287.182H85.8764V305.321H93.419V287.182H97.581V305.321H105.124V287.182H109.286V309H81.7145V287.182ZM121.306 309.483C119.924 309.483 118.674 309.227 117.556 308.716C116.439 308.195 115.553 307.442 114.9 306.457C114.256 305.473 113.934 304.265 113.934 302.835C113.934 301.604 114.171 300.591 114.644 299.795C115.118 299 115.757 298.37 116.562 297.906C117.367 297.442 118.266 297.092 119.261 296.855C120.255 296.618 121.268 296.438 122.3 296.315C123.607 296.164 124.668 296.041 125.482 295.946C126.297 295.842 126.888 295.676 127.258 295.449C127.627 295.222 127.812 294.852 127.812 294.341V294.241C127.812 293.001 127.461 292.04 126.761 291.358C126.069 290.676 125.037 290.335 123.664 290.335C122.234 290.335 121.107 290.652 120.283 291.287C119.469 291.912 118.906 292.608 118.593 293.375L114.602 292.466C115.075 291.14 115.766 290.07 116.675 289.256C117.594 288.432 118.65 287.835 119.843 287.466C121.036 287.087 122.291 286.898 123.607 286.898C124.478 286.898 125.402 287.002 126.377 287.21C127.362 287.409 128.281 287.778 129.133 288.318C129.995 288.858 130.7 289.63 131.249 290.634C131.799 291.628 132.073 292.92 132.073 294.511V309H127.925V306.017H127.755C127.48 306.566 127.068 307.106 126.519 307.636C125.97 308.167 125.264 308.607 124.403 308.957C123.541 309.308 122.509 309.483 121.306 309.483ZM122.229 306.074C123.404 306.074 124.407 305.842 125.241 305.378C126.084 304.914 126.723 304.308 127.158 303.56C127.603 302.802 127.826 301.992 127.826 301.131V298.318C127.674 298.47 127.381 298.612 126.945 298.744C126.519 298.867 126.031 298.976 125.482 299.071C124.933 299.156 124.398 299.237 123.877 299.312C123.356 299.379 122.921 299.436 122.57 299.483C121.746 299.587 120.994 299.762 120.312 300.009C119.639 300.255 119.1 300.61 118.692 301.074C118.295 301.528 118.096 302.134 118.096 302.892C118.096 303.943 118.484 304.739 119.261 305.278C120.037 305.809 121.027 306.074 122.229 306.074ZM152.517 296.259V299.938H140.699V296.259H152.517ZM141.892 287.182V309H137.73V287.182H141.892ZM155.486 287.182V309H151.338V287.182H155.486ZM165.33 303.048L174.946 287.182H179.52V309H175.358V293.119L165.784 309H161.168V287.182H165.33V303.048ZM200.017 296.259V299.938H188.199V296.259H200.017ZM189.392 287.182V309H185.23V287.182H189.392ZM202.986 287.182V309H198.838V287.182H202.986ZM215.017 309.483C213.634 309.483 212.384 309.227 211.267 308.716C210.15 308.195 209.264 307.442 208.611 306.457C207.967 305.473 207.645 304.265 207.645 302.835C207.645 301.604 207.882 300.591 208.355 299.795C208.829 299 209.468 298.37 210.273 297.906C211.078 297.442 211.977 297.092 212.972 296.855C213.966 296.618 214.979 296.438 216.011 296.315C217.318 296.164 218.379 296.041 219.193 295.946C220.008 295.842 220.599 295.676 220.969 295.449C221.338 295.222 221.523 294.852 221.523 294.341V294.241C221.523 293.001 221.172 292.04 220.472 291.358C219.78 290.676 218.748 290.335 217.375 290.335C215.945 290.335 214.818 290.652 213.994 291.287C213.18 291.912 212.616 292.608 212.304 293.375L208.312 292.466C208.786 291.14 209.477 290.07 210.386 289.256C211.305 288.432 212.361 287.835 213.554 287.466C214.747 287.087 216.002 286.898 217.318 286.898C218.189 286.898 219.113 287.002 220.088 287.21C221.073 287.409 221.991 287.778 222.844 288.318C223.705 288.858 224.411 289.63 224.96 290.634C225.509 291.628 225.784 292.92 225.784 294.511V309H221.636V306.017H221.466C221.191 306.566 220.779 307.106 220.23 307.636C219.681 308.167 218.975 308.607 218.114 308.957C217.252 309.308 216.22 309.483 215.017 309.483ZM215.94 306.074C217.115 306.074 218.118 305.842 218.952 305.378C219.795 304.914 220.434 304.308 220.869 303.56C221.314 302.802 221.537 301.992 221.537 301.131V298.318C221.385 298.47 221.092 298.612 220.656 298.744C220.23 298.867 219.742 298.976 219.193 299.071C218.644 299.156 218.109 299.237 217.588 299.312C217.067 299.379 216.632 299.436 216.281 299.483C215.457 299.587 214.705 299.762 214.023 300.009C213.35 300.255 212.811 300.61 212.403 301.074C212.006 301.528 211.807 302.134 211.807 302.892C211.807 303.943 212.195 304.739 212.972 305.278C213.748 305.809 214.738 306.074 215.94 306.074Z" fill="#FFFEFE"/>
<path d="M13.4659 370H11.7045C11.6004 369.493 11.4181 369.048 11.1577 368.665C10.902 368.281 10.5895 367.959 10.2202 367.699C9.85559 367.434 9.45076 367.235 9.00568 367.102C8.56061 366.97 8.09659 366.903 7.61364 366.903C6.73295 366.903 5.93513 367.126 5.22017 367.571C4.50994 368.016 3.94413 368.672 3.52273 369.538C3.10606 370.405 2.89773 371.468 2.89773 372.727C2.89773 373.987 3.10606 375.05 3.52273 375.916C3.94413 376.783 4.50994 377.438 5.22017 377.884C5.93513 378.329 6.73295 378.551 7.61364 378.551C8.09659 378.551 8.56061 378.485 9.00568 378.352C9.45076 378.22 9.85559 378.023 10.2202 377.763C10.5895 377.498 10.902 377.173 11.1577 376.79C11.4181 376.402 11.6004 375.956 11.7045 375.455H13.4659C13.3333 376.198 13.0919 376.863 12.7415 377.45C12.3911 378.037 11.9555 378.537 11.4347 378.949C10.9138 379.356 10.3291 379.666 9.6804 379.879C9.03646 380.092 8.34754 380.199 7.61364 380.199C6.37311 380.199 5.26989 379.896 4.30398 379.29C3.33807 378.684 2.57813 377.822 2.02415 376.705C1.47017 375.587 1.19318 374.261 1.19318 372.727C1.19318 371.193 1.47017 369.867 2.02415 368.75C2.57813 367.633 3.33807 366.771 4.30398 366.165C5.26989 365.559 6.37311 365.256 7.61364 365.256C8.34754 365.256 9.03646 365.362 9.6804 365.575C10.3291 365.788 10.9138 366.101 11.4347 366.513C11.9555 366.92 12.3911 367.417 12.7415 368.004C13.0919 368.587 13.3333 369.252 13.4659 370ZM16.0849 380V369.091H24.6644V380H22.9883V370.653H17.761V380H16.0849ZM27.7255 380V369.091H29.4016V380H27.7255ZM28.5778 367.273C28.2511 367.273 27.9693 367.161 27.7326 366.939C27.5006 366.716 27.3846 366.449 27.3846 366.136C27.3846 365.824 27.5006 365.556 27.7326 365.334C27.9693 365.111 28.2511 365 28.5778 365C28.9045 365 29.1838 365.111 29.4158 365.334C29.6526 365.556 29.771 365.824 29.771 366.136C29.771 366.449 29.6526 366.716 29.4158 366.939C29.1838 367.161 28.9045 367.273 28.5778 367.273ZM31.5057 380V378.438H31.9034C32.2301 378.438 32.5024 378.374 32.7202 378.246C32.938 378.113 33.1132 377.884 33.2457 377.557C33.383 377.225 33.4872 376.766 33.5582 376.179C33.634 375.587 33.6884 374.834 33.7216 373.92L33.9205 369.091H41.1932V380H39.517V370.653H35.5114L35.3409 374.545C35.303 375.44 35.2225 376.229 35.0994 376.911C34.9811 377.588 34.7988 378.156 34.5526 378.615C34.3111 379.074 33.9891 379.42 33.5866 379.652C33.1842 379.884 32.6799 380 32.0739 380H31.5057ZM45.7173 373.04H48.8423C50.1207 373.04 51.0985 373.364 51.7756 374.013C52.4527 374.661 52.7912 375.483 52.7912 376.477C52.7912 377.131 52.6397 377.725 52.3366 378.26C52.0336 378.79 51.5885 379.214 51.0014 379.531C50.4143 379.844 49.6946 380 48.8423 380H44.2685V369.091H45.9446V378.438H48.8423C49.5052 378.438 50.0497 378.262 50.4759 377.912C50.902 377.562 51.1151 377.112 51.1151 376.562C51.1151 375.985 50.902 375.514 50.4759 375.149C50.0497 374.785 49.5052 374.602 48.8423 374.602H45.7173V373.04ZM62.6438 373.778V375.341H56.6211V373.778H62.6438ZM57.0188 369.091V380H55.3427V369.091H57.0188ZM63.9222 369.091V380H62.2461V369.091H63.9222ZM68.6594 377.528L73.9151 369.091H75.8469V380H74.1708V371.562L68.9435 380H66.9833V369.091H68.6594V377.528ZM80.593 377.528L85.8487 369.091H87.7805V380H86.1044V371.562L80.8771 380H78.9169V369.091H80.593V377.528ZM84.7408 365.455H86.3033C86.3033 366.222 86.0381 366.849 85.5078 367.337C84.9775 367.824 84.2578 368.068 83.3487 368.068C82.4538 368.068 81.7412 367.824 81.2109 367.337C80.6854 366.849 80.4226 366.222 80.4226 365.455H81.9851C81.9851 365.824 82.0869 366.148 82.2905 366.428C82.4988 366.707 82.8516 366.847 83.3487 366.847C83.8459 366.847 84.201 366.707 84.4141 366.428C84.6319 366.148 84.7408 365.824 84.7408 365.455ZM99.6857 380.256C98.9944 380.256 98.3671 380.125 97.8036 379.865C97.2402 379.6 96.7927 379.219 96.4613 378.722C96.1299 378.22 95.9641 377.614 95.9641 376.903C95.9641 376.278 96.0872 375.772 96.3335 375.384C96.5797 374.991 96.9087 374.683 97.3207 374.46C97.7326 374.238 98.1871 374.072 98.6843 373.963C99.1862 373.849 99.6905 373.759 100.197 373.693C100.86 373.608 101.397 373.544 101.809 373.501C102.226 373.454 102.529 373.376 102.718 373.267C102.913 373.158 103.01 372.969 103.01 372.699V372.642C103.01 371.941 102.818 371.397 102.434 371.009C102.056 370.62 101.48 370.426 100.708 370.426C99.9083 370.426 99.2809 370.601 98.8263 370.952C98.3718 371.302 98.0522 371.676 97.8675 372.074L96.2766 371.506C96.5607 370.843 96.9395 370.327 97.413 369.957C97.8912 369.583 98.4121 369.323 98.9755 369.176C99.5437 369.025 100.102 368.949 100.652 368.949C101.002 368.949 101.404 368.991 101.859 369.077C102.318 369.157 102.761 369.325 103.187 369.581C103.618 369.837 103.975 370.223 104.26 370.739C104.544 371.255 104.686 371.946 104.686 372.812V380H103.01V378.523H102.924C102.811 378.759 102.621 379.013 102.356 379.283C102.091 379.553 101.738 379.782 101.298 379.972C100.858 380.161 100.32 380.256 99.6857 380.256ZM99.9414 378.75C100.604 378.75 101.163 378.62 101.618 378.359C102.077 378.099 102.422 377.763 102.654 377.351C102.891 376.939 103.01 376.506 103.01 376.051V374.517C102.939 374.602 102.782 374.68 102.541 374.751C102.304 374.818 102.029 374.877 101.717 374.929C101.409 374.976 101.109 375.019 100.815 375.057C100.526 375.09 100.292 375.118 100.112 375.142C99.6763 375.199 99.2691 375.291 98.8903 375.419C98.5162 375.542 98.2132 375.729 97.9812 375.98C97.7539 376.226 97.6403 376.562 97.6403 376.989C97.6403 377.571 97.8557 378.011 98.2866 378.31C98.7222 378.603 99.2738 378.75 99.9414 378.75ZM106.779 380V378.438H107.177C107.504 378.438 107.776 378.374 107.994 378.246C108.211 378.113 108.387 377.884 108.519 377.557C108.656 377.225 108.761 376.766 108.832 376.179C108.907 375.587 108.962 374.834 108.995 373.92L109.194 369.091H116.467V380H114.79V370.653H110.785L110.614 374.545C110.576 375.44 110.496 376.229 110.373 376.911C110.254 377.588 110.072 378.156 109.826 378.615C109.585 379.074 109.263 379.42 108.86 379.652C108.458 379.884 107.953 380 107.347 380H106.779ZM120.991 373.04H124.116C125.394 373.04 126.372 373.364 127.049 374.013C127.726 374.661 128.065 375.483 128.065 376.477C128.065 377.131 127.913 377.725 127.61 378.26C127.307 378.79 126.862 379.214 126.275 379.531C125.688 379.844 124.968 380 124.116 380H119.542V369.091H121.218V378.438H124.116C124.779 378.438 125.323 378.262 125.749 377.912C126.175 377.562 126.388 377.112 126.388 376.562C126.388 375.985 126.175 375.514 125.749 375.149C125.323 374.785 124.779 374.602 124.116 374.602H120.991V373.04ZM138.713 365L139.565 366.023C139.234 366.345 138.85 366.57 138.414 366.697C137.979 366.825 137.486 366.903 136.937 366.932C136.388 366.96 135.777 366.989 135.105 367.017C134.347 367.045 133.72 367.23 133.223 367.571C132.725 367.912 132.342 368.404 132.072 369.048C131.802 369.692 131.629 370.483 131.554 371.42H131.696C132.065 370.739 132.576 370.237 133.23 369.915C133.883 369.593 134.584 369.432 135.332 369.432C136.184 369.432 136.951 369.631 137.633 370.028C138.315 370.426 138.855 371.016 139.252 371.797C139.65 372.578 139.849 373.542 139.849 374.688C139.849 375.829 139.645 376.813 139.238 377.642C138.836 378.471 138.27 379.11 137.541 379.56C136.816 380.005 135.967 380.227 134.991 380.227C134.016 380.227 133.161 379.998 132.427 379.538C131.693 379.074 131.123 378.388 130.716 377.479C130.308 376.565 130.105 375.436 130.105 374.091V372.926C130.105 370.497 130.517 368.655 131.341 367.401C132.169 366.146 133.414 365.497 135.076 365.455C135.663 365.436 136.187 365.431 136.646 365.44C137.105 365.45 137.505 365.429 137.846 365.376C138.187 365.324 138.476 365.199 138.713 365ZM134.991 378.722C135.649 378.722 136.215 378.556 136.689 378.224C137.167 377.893 137.534 377.427 137.789 376.825C138.045 376.219 138.173 375.507 138.173 374.688C138.173 373.892 138.043 373.215 137.782 372.656C137.527 372.098 137.16 371.671 136.681 371.378C136.203 371.084 135.63 370.938 134.963 370.938C134.475 370.938 134.037 371.02 133.649 371.186C133.261 371.352 132.929 371.596 132.654 371.918C132.38 372.24 132.167 372.633 132.015 373.097C131.868 373.561 131.79 374.091 131.781 374.688C131.781 375.909 132.067 376.887 132.64 377.621C133.213 378.355 133.997 378.722 134.991 378.722ZM146.845 380.227C145.86 380.227 144.996 379.993 144.252 379.524C143.514 379.055 142.936 378.4 142.52 377.557C142.108 376.714 141.902 375.729 141.902 374.602C141.902 373.466 142.108 372.474 142.52 371.626C142.936 370.779 143.514 370.121 144.252 369.652C144.996 369.183 145.86 368.949 146.845 368.949C147.83 368.949 148.691 369.183 149.43 369.652C150.173 370.121 150.751 370.779 151.163 371.626C151.58 372.474 151.788 373.466 151.788 374.602C151.788 375.729 151.58 376.714 151.163 377.557C150.751 378.4 150.173 379.055 149.43 379.524C148.691 379.993 147.83 380.227 146.845 380.227ZM146.845 378.722C147.593 378.722 148.208 378.53 148.691 378.146C149.174 377.763 149.532 377.259 149.764 376.634C149.996 376.009 150.112 375.331 150.112 374.602C150.112 373.873 149.996 373.194 149.764 372.564C149.532 371.934 149.174 371.425 148.691 371.037C148.208 370.649 147.593 370.455 146.845 370.455C146.097 370.455 145.481 370.649 144.998 371.037C144.515 371.425 144.158 371.934 143.926 372.564C143.694 373.194 143.578 373.873 143.578 374.602C143.578 375.331 143.694 376.009 143.926 376.634C144.158 377.259 144.515 377.763 144.998 378.146C145.481 378.53 146.097 378.722 146.845 378.722ZM160.312 377.727L164.119 369.091H165.71L160.994 380H159.631L155 369.091H156.562L160.312 377.727ZM156.023 369.091V380H154.347V369.091H156.023ZM164.602 380V369.091H166.278V380H164.602Z" fill="white"/>
<path d="M1.20455 412V410.977L5.04545 406.773C5.49621 406.28 5.86742 405.852 6.15909 405.489C6.45076 405.121 6.66667 404.777 6.80682 404.455C6.95076 404.129 7.02273 403.788 7.02273 403.432C7.02273 403.023 6.92424 402.669 6.72727 402.369C6.53409 402.07 6.26894 401.839 5.93182 401.676C5.5947 401.513 5.21591 401.432 4.79545 401.432C4.34848 401.432 3.95833 401.525 3.625 401.71C3.29545 401.892 3.03977 402.148 2.85795 402.477C2.67992 402.807 2.59091 403.193 2.59091 403.636H1.25C1.25 402.955 1.4072 402.356 1.72159 401.841C2.03598 401.326 2.46402 400.924 3.00568 400.636C3.55114 400.348 4.16288 400.205 4.84091 400.205C5.52273 400.205 6.12689 400.348 6.65341 400.636C7.17992 400.924 7.5928 401.312 7.89205 401.801C8.19129 402.29 8.34091 402.833 8.34091 403.432C8.34091 403.86 8.26326 404.278 8.10795 404.688C7.95644 405.093 7.69129 405.545 7.3125 406.045C6.9375 406.542 6.41667 407.148 5.75 407.864L3.13636 410.659V410.75H8.54545V412H1.20455ZM14.6875 412.159C13.8314 412.159 13.1023 411.926 12.5 411.46C11.8977 410.991 11.4375 410.311 11.1193 409.42C10.8011 408.527 10.642 407.447 10.642 406.182C10.642 404.924 10.8011 403.85 11.1193 402.96C11.4413 402.066 11.9034 401.384 12.5057 400.915C13.1117 400.441 13.839 400.205 14.6875 400.205C15.536 400.205 16.2614 400.441 16.8636 400.915C17.4697 401.384 17.9318 402.066 18.25 402.96C18.572 403.85 18.733 404.924 18.733 406.182C18.733 407.447 18.5739 408.527 18.2557 409.42C17.9375 410.311 17.4773 410.991 16.875 411.46C16.2727 411.926 15.5436 412.159 14.6875 412.159ZM14.6875 410.909C15.536 410.909 16.1951 410.5 16.6648 409.682C17.1345 408.864 17.3693 407.697 17.3693 406.182C17.3693 405.174 17.2614 404.316 17.0455 403.608C16.8333 402.9 16.5265 402.36 16.125 401.989C15.7273 401.617 15.2481 401.432 14.6875 401.432C13.8466 401.432 13.1894 401.847 12.7159 402.676C12.2424 403.502 12.0057 404.67 12.0057 406.182C12.0057 407.189 12.1117 408.045 12.3239 408.75C12.536 409.455 12.8409 409.991 13.2386 410.358C13.6402 410.725 14.1231 410.909 14.6875 410.909ZM25.4148 412V403.273H32.2784V412H30.9375V404.523H26.7557V412H25.4148ZM34.7273 412V403.273H36.0682V412H34.7273ZM35.4091 401.818C35.1477 401.818 34.9223 401.729 34.733 401.551C34.5473 401.373 34.4545 401.159 34.4545 400.909C34.4545 400.659 34.5473 400.445 34.733 400.267C34.9223 400.089 35.1477 400 35.4091 400C35.6705 400 35.8939 400.089 36.0795 400.267C36.2689 400.445 36.3636 400.659 36.3636 400.909C36.3636 401.159 36.2689 401.373 36.0795 401.551C35.8939 401.729 35.6705 401.818 35.4091 401.818ZM42.0696 412.182C41.2514 412.182 40.5469 411.989 39.956 411.602C39.3651 411.216 38.9105 410.684 38.5923 410.006C38.2741 409.328 38.1151 408.553 38.1151 407.682C38.1151 406.795 38.2779 406.013 38.6037 405.335C38.9332 404.653 39.3916 404.121 39.9787 403.739C40.5696 403.352 41.259 403.159 42.0469 403.159C42.6605 403.159 43.2135 403.273 43.706 403.5C44.1984 403.727 44.6018 404.045 44.9162 404.455C45.2306 404.864 45.4257 405.341 45.5014 405.886H44.1605C44.0582 405.489 43.831 405.136 43.4787 404.83C43.1302 404.519 42.6605 404.364 42.0696 404.364C41.5469 404.364 41.0885 404.5 40.6946 404.773C40.3045 405.042 39.9995 405.422 39.7798 405.915C39.5639 406.403 39.456 406.977 39.456 407.636C39.456 408.311 39.562 408.898 39.7741 409.398C39.9901 409.898 40.2931 410.286 40.6832 410.562C41.0772 410.839 41.5393 410.977 42.0696 410.977C42.4181 410.977 42.7344 410.917 43.0185 410.795C43.3026 410.674 43.5431 410.5 43.7401 410.273C43.937 410.045 44.0772 409.773 44.1605 409.455H45.5014C45.4257 409.97 45.2382 410.434 44.9389 410.847C44.6435 411.256 44.2514 411.581 43.7628 411.824C43.2779 412.062 42.7135 412.182 42.0696 412.182ZM51.1207 412.182C50.2798 412.182 49.5545 411.996 48.9446 411.625C48.3385 411.25 47.8707 410.727 47.5412 410.057C47.2154 409.383 47.0526 408.598 47.0526 407.705C47.0526 406.811 47.2154 406.023 47.5412 405.341C47.8707 404.655 48.3291 404.121 48.9162 403.739C49.5071 403.352 50.1965 403.159 50.9844 403.159C51.4389 403.159 51.8878 403.235 52.331 403.386C52.7741 403.538 53.1776 403.784 53.5412 404.125C53.9048 404.462 54.1946 404.909 54.4105 405.466C54.6264 406.023 54.7344 406.708 54.7344 407.523V408.091H48.0071V406.932H53.3707C53.3707 406.439 53.2723 406 53.0753 405.614C52.8821 405.227 52.6056 404.922 52.2457 404.699C51.8897 404.475 51.4692 404.364 50.9844 404.364C50.4503 404.364 49.9882 404.496 49.598 404.761C49.2116 405.023 48.9143 405.364 48.706 405.784C48.4976 406.205 48.3935 406.655 48.3935 407.136V407.909C48.3935 408.568 48.5071 409.127 48.7344 409.585C48.9654 410.04 49.2855 410.386 49.6946 410.625C50.1037 410.86 50.5791 410.977 51.1207 410.977C51.473 410.977 51.7912 410.928 52.0753 410.83C52.3632 410.727 52.6113 410.576 52.8196 410.375C53.0279 410.17 53.1889 409.917 53.3026 409.614L54.598 409.977C54.4616 410.417 54.2325 410.803 53.9105 411.136C53.5885 411.466 53.1908 411.723 52.7173 411.909C52.2438 412.091 51.7116 412.182 51.1207 412.182ZM62.6151 407.023V408.273H57.7969V407.023H62.6151ZM58.1151 403.273V412H56.7741V403.273H58.1151ZM63.6378 403.273V412H62.2969V403.273H63.6378ZM67.2457 406.432H69.7457C70.7685 406.432 71.5507 406.691 72.0923 407.21C72.634 407.729 72.9048 408.386 72.9048 409.182C72.9048 409.705 72.7836 410.18 72.5412 410.608C72.2988 411.032 71.9427 411.371 71.473 411.625C71.0033 411.875 70.4276 412 69.7457 412H66.0866V403.273H67.4276V410.75H69.7457C70.276 410.75 70.7116 410.61 71.0526 410.33C71.3935 410.049 71.5639 409.689 71.5639 409.25C71.5639 408.788 71.3935 408.411 71.0526 408.119C70.7116 407.828 70.276 407.682 69.7457 407.682H67.2457V406.432Z" fill="#BDBDBD"/>
</svg>
