<svg width="345" height="413" viewBox="0 0 345 413" fill="none" xmlns="http://www.w3.org/2000/svg">
<rect width="345" height="345" fill="#242424"/>
<path d="M193.25 210.188C193.25 206.9 194.556 203.747 196.881 201.422C199.205 199.098 202.358 197.792 205.646 197.792H232.208V209.833C232.208 213.215 230.865 216.458 228.474 218.849C226.083 221.24 222.84 222.583 219.458 222.583H205.646C202.358 222.583 199.205 221.277 196.881 218.953C194.556 216.628 193.25 213.475 193.25 210.188ZM108.25 224.354C108.25 221.067 109.556 217.914 111.881 215.589C114.205 213.264 117.358 211.958 120.646 211.958H143.667V224C143.667 225.674 143.337 227.332 142.696 228.879C142.055 230.426 141.116 231.832 139.932 233.016C138.748 234.2 137.343 235.139 135.796 235.779C134.249 236.42 132.591 236.75 130.917 236.75H120.646C117.358 236.75 114.205 235.444 111.881 233.119C109.556 230.795 108.25 227.642 108.25 224.354Z" stroke="#A6A6A6" stroke-width="7" stroke-linejoin="round"/>
<path d="M143.667 151.906L232.208 130.943M143.667 222.583V123.417L232.208 102.167V207.326" stroke="#A6A6A6" stroke-width="7" stroke-linecap="round" stroke-linejoin="round"/>
<path d="M1.76136 365.455H3.86364L8.80682 377.528H8.97727L13.9205 365.455H16.0227V380H14.375V368.949H14.233L9.6875 380H8.09659L3.55114 368.949H3.40909V380H1.76136V365.455ZM19.3271 380V369.091H21.0032V380H19.3271ZM20.1793 367.273C19.8526 367.273 19.5709 367.161 19.3342 366.939C19.1022 366.716 18.9862 366.449 18.9862 366.136C18.9862 365.824 19.1022 365.556 19.3342 365.334C19.5709 365.111 19.8526 365 20.1793 365C20.506 365 20.7854 365.111 21.0174 365.334C21.2541 365.556 21.3725 365.824 21.3725 366.136C21.3725 366.449 21.2541 366.716 21.0174 366.939C20.7854 367.161 20.506 367.273 20.1793 367.273ZM25.7493 377.528L31.005 369.091H32.9368V380H31.2607V371.562L26.0334 380H24.0732V369.091H25.7493V377.528ZM29.897 365.455H31.4595C31.4595 366.222 31.1944 366.849 30.6641 367.337C30.1338 367.824 29.4141 368.068 28.505 368.068C27.6101 368.068 26.8975 367.824 26.3672 367.337C25.8416 366.849 25.5788 366.222 25.5788 365.455H27.1413C27.1413 365.824 27.2431 366.148 27.4467 366.428C27.6551 366.707 28.0078 366.847 28.505 366.847C29.0021 366.847 29.3572 366.707 29.5703 366.428C29.7881 366.148 29.897 365.824 29.897 365.455ZM41.6317 380V369.091H50.2113V380H48.5352V370.653H43.3079V380H41.6317ZM52.3065 380V378.438H52.7042C53.0309 378.438 53.3031 378.374 53.521 378.246C53.7388 378.113 53.9139 377.884 54.0465 377.557C54.1838 377.225 54.288 376.766 54.359 376.179C54.4348 375.587 54.4892 374.834 54.5224 373.92L54.7212 369.091H61.994V380H60.3178V370.653H56.3121L56.1417 374.545C56.1038 375.44 56.0233 376.229 55.9002 376.911C55.7818 377.588 55.5996 378.156 55.3533 378.615C55.1119 379.074 54.7899 379.42 54.3874 379.652C53.985 379.884 53.4807 380 52.8746 380H52.3065ZM69.6431 380.227C68.592 380.227 67.6853 379.995 66.9229 379.531C66.1654 379.062 65.5806 378.409 65.1687 377.571C64.7615 376.728 64.5579 375.748 64.5579 374.631C64.5579 373.513 64.7615 372.528 65.1687 371.676C65.5806 370.819 66.1535 370.152 66.8874 369.673C67.6261 369.19 68.4878 368.949 69.4727 368.949C70.0408 368.949 70.6019 369.044 71.1559 369.233C71.7099 369.422 72.2141 369.73 72.6687 370.156C73.1232 370.578 73.4854 371.136 73.7553 371.832C74.0252 372.528 74.1602 373.385 74.1602 374.403V375.114H65.7511V373.665H72.4556C72.4556 373.049 72.3325 372.5 72.0863 372.017C71.8448 371.534 71.4992 371.153 71.0494 370.874C70.6043 370.594 70.0787 370.455 69.4727 370.455C68.805 370.455 68.2274 370.62 67.7397 370.952C67.2567 371.278 66.8851 371.705 66.6246 372.23C66.3642 372.756 66.234 373.319 66.234 373.92V374.886C66.234 375.71 66.3761 376.409 66.6602 376.982C66.949 377.55 67.3491 377.983 67.8604 378.281C68.3718 378.575 68.966 378.722 69.6431 378.722C70.0835 378.722 70.4812 378.66 70.8363 378.537C71.1961 378.409 71.5063 378.22 71.7667 377.969C72.0271 377.713 72.2283 377.396 72.3704 377.017L73.9897 377.472C73.8192 378.021 73.5328 378.504 73.1303 378.92C72.7279 379.332 72.2307 379.654 71.6388 379.886C71.047 380.114 70.3817 380.227 69.6431 380.227ZM78.386 377.528L83.6417 369.091H85.5735V380H83.8974V371.562L78.6701 380H76.7099V369.091H78.386V377.528ZM82.5337 365.455H84.0962C84.0962 366.222 83.8311 366.849 83.3008 367.337C82.7705 367.824 82.0508 368.068 81.1417 368.068C80.2468 368.068 79.5342 367.824 79.0039 367.337C78.4783 366.849 78.2156 366.222 78.2156 365.455H79.7781C79.7781 365.824 79.8799 366.148 80.0835 366.428C80.2918 366.707 80.6445 366.847 81.1417 366.847C81.6388 366.847 81.994 366.707 82.207 366.428C82.4248 366.148 82.5337 365.824 82.5337 365.455ZM87.6776 380V378.438H88.0753C88.402 378.438 88.6742 378.374 88.892 378.246C89.1098 378.113 89.285 377.884 89.4176 377.557C89.5549 377.225 89.6591 376.766 89.7301 376.179C89.8059 375.587 89.8603 374.834 89.8935 373.92L90.0923 369.091H97.3651V380H95.6889V370.653H91.6832L91.5128 374.545C91.4749 375.44 91.3944 376.229 91.2713 376.911C91.1529 377.588 90.9706 378.156 90.7244 378.615C90.483 379.074 90.161 379.42 89.7585 379.652C89.3561 379.884 88.8518 380 88.2457 380H87.6776ZM100.44 380V369.091H102.116V380H100.44ZM101.293 367.273C100.966 367.273 100.684 367.161 100.447 366.939C100.215 366.716 100.099 366.449 100.099 366.136C100.099 365.824 100.215 365.556 100.447 365.334C100.684 365.111 100.966 365 101.293 365C101.619 365 101.899 365.111 102.131 365.334C102.367 365.556 102.486 365.824 102.486 366.136C102.486 366.449 102.367 366.716 102.131 366.939C101.899 367.161 101.619 367.273 101.293 367.273ZM109.618 380.227C108.596 380.227 107.715 379.986 106.976 379.503C106.238 379.02 105.669 378.355 105.272 377.507C104.874 376.66 104.675 375.691 104.675 374.602C104.675 373.494 104.879 372.517 105.286 371.669C105.698 370.817 106.271 370.152 107.005 369.673C107.743 369.19 108.605 368.949 109.59 368.949C110.357 368.949 111.048 369.091 111.664 369.375C112.279 369.659 112.783 370.057 113.176 370.568C113.569 371.08 113.813 371.676 113.908 372.358H112.232C112.104 371.861 111.82 371.42 111.38 371.037C110.944 370.649 110.357 370.455 109.618 370.455C108.965 370.455 108.392 370.625 107.9 370.966C107.412 371.302 107.031 371.778 106.756 372.393C106.486 373.004 106.351 373.722 106.351 374.545C106.351 375.388 106.484 376.122 106.749 376.747C107.019 377.372 107.398 377.857 107.885 378.203C108.378 378.549 108.955 378.722 109.618 378.722C110.054 378.722 110.449 378.646 110.804 378.494C111.159 378.343 111.46 378.125 111.706 377.841C111.953 377.557 112.128 377.216 112.232 376.818H113.908C113.813 377.462 113.579 378.042 113.205 378.558C112.836 379.07 112.346 379.477 111.735 379.78C111.129 380.078 110.423 380.227 109.618 380.227ZM115.499 370.653V369.091H124.363V370.653H120.783V380H119.107V370.653H115.499ZM132.66 380V365.455H134.364L140.898 376.619H141.04V365.455H142.773V380H141.069L134.563 368.92H134.421V380H132.66ZM144.563 375.597V374.148H150.756V375.597H144.563ZM147.66 372.898C146.959 372.898 146.353 372.758 145.842 372.479C145.335 372.199 144.942 371.809 144.663 371.307C144.388 370.805 144.251 370.218 144.251 369.545V368.58C144.251 367.907 144.388 367.32 144.663 366.818C144.937 366.316 145.328 365.926 145.835 365.646C146.341 365.367 146.94 365.227 147.631 365.227C148.332 365.227 148.933 365.367 149.435 365.646C149.942 365.926 150.33 366.316 150.6 366.818C150.875 367.32 151.012 367.907 151.012 368.58V369.545C151.012 370.218 150.877 370.805 150.607 371.307C150.337 371.809 149.951 372.199 149.45 372.479C148.948 372.758 148.351 372.898 147.66 372.898ZM147.66 371.477C148.214 371.477 148.626 371.302 148.896 370.952C149.17 370.597 149.308 370.128 149.308 369.545V368.58C149.308 368.011 149.17 367.552 148.896 367.202C148.621 366.851 148.2 366.676 147.631 366.676C147.063 366.676 146.642 366.851 146.367 367.202C146.093 367.552 145.955 368.011 145.955 368.58V369.545C145.955 370.128 146.093 370.597 146.367 370.952C146.647 371.302 147.077 371.477 147.66 371.477ZM159.276 365.455V380H157.514V367.301H157.429L153.878 369.659V367.869L157.514 365.455H159.276Z" fill="white"/>
<path d="M5.13636 412.159C4.38636 412.159 3.7178 412.03 3.13068 411.773C2.54735 411.515 2.08333 411.157 1.73864 410.699C1.39773 410.237 1.21212 409.701 1.18182 409.091H2.61364C2.64394 409.466 2.77273 409.79 3 410.062C3.22727 410.331 3.52462 410.54 3.89205 410.688C4.25947 410.835 4.66667 410.909 5.11364 410.909C5.61364 410.909 6.05682 410.822 6.44318 410.648C6.82955 410.473 7.13258 410.231 7.35227 409.92C7.57197 409.61 7.68182 409.25 7.68182 408.841C7.68182 408.413 7.57576 408.036 7.36364 407.71C7.15152 407.381 6.84091 407.123 6.43182 406.938C6.02273 406.752 5.52273 406.659 4.93182 406.659H4V405.409H4.93182C5.39394 405.409 5.79924 405.326 6.14773 405.159C6.5 404.992 6.77462 404.758 6.97159 404.455C7.17235 404.152 7.27273 403.795 7.27273 403.386C7.27273 402.992 7.18561 402.65 7.01136 402.358C6.83712 402.066 6.59091 401.839 6.27273 401.676C5.95833 401.513 5.58712 401.432 5.15909 401.432C4.75758 401.432 4.37879 401.506 4.02273 401.653C3.67045 401.797 3.38258 402.008 3.15909 402.284C2.93561 402.557 2.81439 402.886 2.79545 403.273H1.43182C1.45455 402.663 1.63826 402.129 1.98295 401.67C2.32765 401.208 2.77841 400.848 3.33523 400.591C3.89583 400.333 4.51136 400.205 5.18182 400.205C5.90152 400.205 6.51894 400.35 7.03409 400.642C7.54924 400.93 7.94508 401.311 8.22159 401.784C8.49811 402.258 8.63636 402.769 8.63636 403.318C8.63636 403.973 8.46402 404.532 8.11932 404.994C7.77841 405.456 7.31439 405.777 6.72727 405.955V406.045C7.46212 406.167 8.03598 406.479 8.44886 406.983C8.86174 407.483 9.06818 408.102 9.06818 408.841C9.06818 409.473 8.89583 410.042 8.55114 410.545C8.21023 411.045 7.74432 411.439 7.15341 411.727C6.5625 412.015 5.89015 412.159 5.13636 412.159ZM15.2557 412.159C14.7784 412.152 14.3011 412.061 13.8239 411.886C13.3466 411.712 12.911 411.419 12.517 411.006C12.1231 410.589 11.8068 410.027 11.5682 409.318C11.3295 408.606 11.2102 407.712 11.2102 406.636C11.2102 405.606 11.3068 404.693 11.5 403.898C11.6932 403.098 11.9735 402.426 12.3409 401.881C12.7083 401.331 13.1515 400.915 13.6705 400.631C14.1932 400.347 14.7822 400.205 15.4375 400.205C16.089 400.205 16.6686 400.335 17.1761 400.597C17.6875 400.854 18.1042 401.214 18.4261 401.676C18.7481 402.138 18.9564 402.67 19.0511 403.273H17.6648C17.536 402.75 17.286 402.316 16.9148 401.972C16.5436 401.627 16.0511 401.455 15.4375 401.455C14.536 401.455 13.8258 401.847 13.3068 402.631C12.7917 403.415 12.5322 404.515 12.5284 405.932H12.6193C12.8314 405.61 13.0833 405.335 13.375 405.108C13.6705 404.877 13.9962 404.699 14.3523 404.574C14.7083 404.449 15.0852 404.386 15.483 404.386C16.1496 404.386 16.7595 404.553 17.3125 404.886C17.8655 405.216 18.3087 405.672 18.642 406.256C18.9754 406.835 19.142 407.5 19.142 408.25C19.142 408.97 18.9811 409.629 18.6591 410.227C18.3371 410.822 17.8845 411.295 17.3011 411.648C16.7216 411.996 16.0398 412.167 15.2557 412.159ZM15.2557 410.909C15.733 410.909 16.161 410.79 16.5398 410.551C16.9223 410.312 17.2235 409.992 17.4432 409.591C17.6667 409.189 17.7784 408.742 17.7784 408.25C17.7784 407.769 17.6705 407.331 17.4545 406.938C17.2424 406.54 16.9489 406.223 16.5739 405.989C16.2027 405.754 15.7784 405.636 15.3011 405.636C14.9413 405.636 14.6061 405.708 14.2955 405.852C13.9848 405.992 13.7121 406.186 13.4773 406.432C13.2462 406.678 13.0644 406.96 12.9318 407.278C12.7992 407.593 12.733 407.924 12.733 408.273C12.733 408.735 12.8409 409.167 13.0568 409.568C13.2765 409.97 13.5758 410.294 13.9545 410.54C14.3371 410.786 14.7708 410.909 15.2557 410.909ZM25.8991 412V403.273H32.7628V412H31.4219V404.523H27.2401V412H25.8991ZM35.2116 412V403.273H36.5526V412H35.2116ZM35.8935 401.818C35.6321 401.818 35.4067 401.729 35.2173 401.551C35.0317 401.373 34.9389 401.159 34.9389 400.909C34.9389 400.659 35.0317 400.445 35.2173 400.267C35.4067 400.089 35.6321 400 35.8935 400C36.1548 400 36.3783 400.089 36.5639 400.267C36.7533 400.445 36.848 400.659 36.848 400.909C36.848 401.159 36.7533 401.373 36.5639 401.551C36.3783 401.729 36.1548 401.818 35.8935 401.818ZM42.554 412.182C41.7358 412.182 41.0313 411.989 40.4403 411.602C39.8494 411.216 39.3949 410.684 39.0767 410.006C38.7585 409.328 38.5994 408.553 38.5994 407.682C38.5994 406.795 38.7623 406.013 39.0881 405.335C39.4176 404.653 39.8759 404.121 40.4631 403.739C41.054 403.352 41.7434 403.159 42.5312 403.159C43.1449 403.159 43.6979 403.273 44.1903 403.5C44.6828 403.727 45.0862 404.045 45.4006 404.455C45.715 404.864 45.91 405.341 45.9858 405.886H44.6449C44.5426 405.489 44.3153 405.136 43.9631 404.83C43.6146 404.519 43.1449 404.364 42.554 404.364C42.0313 404.364 41.5729 404.5 41.179 404.773C40.7888 405.042 40.4839 405.422 40.2642 405.915C40.0483 406.403 39.9403 406.977 39.9403 407.636C39.9403 408.311 40.0464 408.898 40.2585 409.398C40.4744 409.898 40.7775 410.286 41.1676 410.562C41.5616 410.839 42.0237 410.977 42.554 410.977C42.9025 410.977 43.2188 410.917 43.5028 410.795C43.7869 410.674 44.0275 410.5 44.2244 410.273C44.4214 410.045 44.5616 409.773 44.6449 409.455H45.9858C45.91 409.97 45.7225 410.434 45.4233 410.847C45.1278 411.256 44.7358 411.581 44.2472 411.824C43.7623 412.062 43.1979 412.182 42.554 412.182ZM51.6051 412.182C50.7642 412.182 50.0388 411.996 49.429 411.625C48.8229 411.25 48.3551 410.727 48.0256 410.057C47.6998 409.383 47.5369 408.598 47.5369 407.705C47.5369 406.811 47.6998 406.023 48.0256 405.341C48.3551 404.655 48.8134 404.121 49.4006 403.739C49.9915 403.352 50.6809 403.159 51.4688 403.159C51.9233 403.159 52.3722 403.235 52.8153 403.386C53.2585 403.538 53.6619 403.784 54.0256 404.125C54.3892 404.462 54.679 404.909 54.8949 405.466C55.1108 406.023 55.2188 406.708 55.2188 407.523V408.091H48.4915V406.932H53.8551C53.8551 406.439 53.7566 406 53.5597 405.614C53.3665 405.227 53.09 404.922 52.7301 404.699C52.3741 404.475 51.9536 404.364 51.4688 404.364C50.9347 404.364 50.4725 404.496 50.0824 404.761C49.696 405.023 49.3987 405.364 49.1903 405.784C48.982 406.205 48.8778 406.655 48.8778 407.136V407.909C48.8778 408.568 48.9915 409.127 49.2188 409.585C49.4498 410.04 49.7699 410.386 50.179 410.625C50.5881 410.86 51.0634 410.977 51.6051 410.977C51.9574 410.977 52.2756 410.928 52.5597 410.83C52.8475 410.727 53.0956 410.576 53.304 410.375C53.5123 410.17 53.6733 409.917 53.7869 409.614L55.0824 409.977C54.946 410.417 54.7169 410.803 54.3949 411.136C54.0729 411.466 53.6752 411.723 53.2017 411.909C52.7282 412.091 52.196 412.182 51.6051 412.182ZM63.0994 407.023V408.273H58.2812V407.023H63.0994ZM58.5994 403.273V412H57.2585V403.273H58.5994ZM64.1222 403.273V412H62.7812V403.273H64.1222ZM67.7301 406.432H70.2301C71.2528 406.432 72.035 406.691 72.5767 407.21C73.1184 407.729 73.3892 408.386 73.3892 409.182C73.3892 409.705 73.268 410.18 73.0256 410.608C72.7831 411.032 72.4271 411.371 71.9574 411.625C71.4877 411.875 70.9119 412 70.2301 412H66.571V403.273H67.9119V410.75H70.2301C70.7604 410.75 71.196 410.61 71.5369 410.33C71.8778 410.049 72.0483 409.689 72.0483 409.25C72.0483 408.788 71.8778 408.411 71.5369 408.119C71.196 407.828 70.7604 407.682 70.2301 407.682H67.7301V406.432Z" fill="#BDBDBD"/>
</svg>
